<svg width="562" height="600" viewBox="0 0 562 600" fill="none" xmlns="http://www.w3.org/2000/svg">
<path d="M269.551 499.999H40.9896C18.8985 499.999 0.991089 482.091 0.991089 460.001V420H307.972L269.551 499.999Z" fill="#D3DCFB"/>
<path d="M521.03 180V348.045V459.999H40.9896C18.8985 459.999 0.991089 442.09 0.991089 419.999V180L281.011 79.9994L521.03 180Z" fill="#EBF5FC"/>
<path d="M71.6282 260H50.3786C45.2013 260 41.0037 255.803 41.0037 250.625V229.376C41.0037 224.198 45.2013 220.001 50.3786 220.001H71.6282C76.8055 220.001 81.0032 224.198 81.0032 229.376V250.625C81.0032 255.803 76.8055 260 71.6282 260Z" fill="#3C58A0"/>
<path d="M151.628 260H130.379C125.202 260 121.004 255.803 121.004 250.625V229.376C121.004 224.198 125.202 220.001 130.379 220.001H151.628C156.806 220.001 161.003 224.198 161.003 229.376V250.625C161.003 255.803 156.806 260 151.628 260Z" fill="#3C58A0"/>
<path d="M231.628 260H210.378C205.201 260 201.003 255.803 201.003 250.625V229.376C201.003 224.198 205.201 220.001 210.378 220.001H231.628C236.805 220.001 241.003 224.198 241.003 229.376V250.625C241.003 255.803 236.806 260 231.628 260Z" fill="#3C58A0"/>
<path d="M311.628 260H290.379C285.201 260 281.004 255.803 281.004 250.625V229.376C281.004 224.198 285.201 220.001 290.379 220.001H311.628C316.806 220.001 321.003 224.198 321.003 229.376V250.625C321.003 255.803 316.806 260 311.628 260Z" fill="#3C58A0"/>
<path d="M391.615 260H370.365C365.188 260 360.99 255.803 360.99 250.625V229.376C360.99 224.198 365.188 220.001 370.365 220.001H391.615C396.792 220.001 400.99 224.198 400.99 229.376V250.625C400.99 255.803 396.793 260 391.615 260Z" fill="#3C58A0"/>
<path d="M471.615 260H450.365C445.188 260 440.99 255.803 440.99 250.625V229.376C440.99 224.198 445.188 220.001 450.365 220.001H471.615C476.792 220.001 480.99 224.198 480.99 229.376V250.625C480.99 255.803 476.792 260 471.615 260Z" fill="#3C58A0"/>
<path d="M71.6282 340H50.3786C45.2013 340 41.0037 335.802 41.0037 330.625V309.375C41.0037 304.198 45.2013 300 50.3786 300H71.6282C76.8055 300 81.0032 304.198 81.0032 309.375V330.625C81.0032 335.803 76.8055 340 71.6282 340Z" fill="#3C58A0"/>
<path d="M151.628 340H130.379C125.202 340 121.004 335.802 121.004 330.625V309.375C121.004 304.198 125.202 300 130.379 300H151.628C156.806 300 161.003 304.198 161.003 309.375V330.625C161.003 335.803 156.806 340 151.628 340Z" fill="#3C58A0"/>
<path d="M231.628 340H210.378C205.201 340 201.003 335.802 201.003 330.625V309.375C201.003 304.198 205.201 300 210.378 300H231.628C236.805 300 241.003 304.198 241.003 309.375V330.625C241.003 335.803 236.806 340 231.628 340Z" fill="#3C58A0"/>
<path d="M321.003 340V310C321.003 304.477 316.527 300 311.004 300H291.003C285.48 300 281.004 304.477 281.004 310V330C281.004 335.523 285.481 340 291.003 340H321.003Z" fill="#3C58A0"/>
<path d="M71.6282 420H50.3786C45.2013 420 41.0037 415.802 41.0037 410.625V389.375C41.0037 384.198 45.2013 380 50.3786 380H71.6282C76.8055 380 81.0032 384.198 81.0032 389.375V410.625C81.0032 415.802 76.8055 420 71.6282 420Z" fill="#3C58A0"/>
<path d="M151.628 420H130.379C125.202 420 121.004 415.802 121.004 410.625V389.375C121.004 384.198 125.202 380 130.379 380H151.628C156.806 380 161.003 384.198 161.003 389.375V410.625C161.003 415.802 156.806 420 151.628 420Z" fill="#3C58A0"/>
<path d="M231.628 420H210.378C205.201 420 201.003 415.802 201.003 410.625V389.375C201.003 384.198 205.201 380 210.378 380H231.628C236.805 380 241.003 384.198 241.003 389.375V410.625C241.003 415.802 236.806 420 231.628 420Z" fill="#3C58A0"/>
<path d="M471.332 220H450.649C449.397 220 448.205 220.246 447.107 220.678C450.687 222.091 453.223 225.574 453.223 229.657V250.341C453.223 254.423 450.686 257.906 447.107 259.32C448.205 259.753 449.397 259.999 450.649 259.999H471.332C476.667 259.999 480.991 255.675 480.991 250.342V229.658C480.99 224.324 476.666 220 471.332 220V220Z" fill="#2A428C"/>
<path d="M391.332 220H370.648C369.397 220 368.205 220.246 367.107 220.678C370.687 222.091 373.223 225.574 373.223 229.657V250.341C373.223 254.423 370.686 257.906 367.107 259.32C368.205 259.753 369.397 259.999 370.648 259.999H391.332C396.666 259.999 400.989 255.675 400.989 250.342V229.658C400.989 224.324 396.666 220 391.332 220V220Z" fill="#2A428C"/>
<path d="M311.346 220H290.662C289.411 220 288.219 220.246 287.121 220.678C290.701 222.091 293.238 225.574 293.238 229.657V250.341C293.238 254.423 290.701 257.906 287.121 259.32C288.219 259.753 289.411 259.999 290.662 259.999H311.346C316.68 259.999 321.004 255.675 321.004 250.342V229.658C321.003 224.324 316.679 220 311.346 220V220Z" fill="#2A428C"/>
<path d="M231.346 220H210.662C209.41 220 208.219 220.246 207.121 220.678C210.701 222.091 213.238 225.574 213.238 229.657V250.341C213.238 254.423 210.701 257.906 207.121 259.32C208.219 259.753 209.41 259.999 210.662 259.999H231.346C236.68 259.999 241.004 255.675 241.004 250.342V229.658C241.003 224.324 236.68 220 231.346 220V220Z" fill="#2A428C"/>
<path d="M151.345 220H130.661C129.41 220 128.218 220.246 127.12 220.678C130.7 222.091 133.236 225.574 133.236 229.657V250.341C133.236 254.423 130.699 257.906 127.12 259.32C128.218 259.753 129.41 259.999 130.661 259.999H151.345C156.679 259.999 161.004 255.675 161.004 250.342V229.658C161.004 224.324 156.679 220 151.345 220V220Z" fill="#2A428C"/>
<path d="M71.3459 220H50.6623C49.4107 220 48.2189 220.246 47.1208 220.678C50.7009 222.091 53.2381 225.574 53.2381 229.657V250.341C53.2381 254.423 50.7009 257.906 47.1208 259.32C48.2189 259.753 49.4107 259.999 50.6623 259.999H71.3459C76.6803 259.999 81.0045 255.675 81.0045 250.342V229.658C81.0034 224.324 76.6791 220 71.3459 220V220Z" fill="#2A428C"/>
<path d="M71.3459 300H50.6623C49.4107 300 48.2189 300.246 47.1208 300.679C50.7009 302.092 53.2381 305.575 53.2381 309.657V330.342C53.2381 334.425 50.7009 337.908 47.1208 339.321C48.2189 339.755 49.4107 340.001 50.6623 340.001H71.3459C76.6803 340.001 81.0045 335.677 81.0045 330.343V309.659C81.0034 304.324 76.6791 300 71.3459 300V300Z" fill="#2A428C"/>
<path d="M71.3459 380H50.6623C49.4107 380 48.2189 380.246 47.1208 380.679C50.7009 382.092 53.2381 385.575 53.2381 389.658V410.343C53.2381 414.425 50.7009 417.908 47.1208 419.321C48.2189 419.755 49.4107 420.001 50.6623 420.001H71.3459C76.6803 420.001 81.0045 415.677 81.0045 410.344V389.659C81.0034 384.323 76.6791 380 71.3459 380V380Z" fill="#2A428C"/>
<path d="M151.345 300H130.661C129.41 300 128.218 300.246 127.12 300.679C130.7 302.092 133.236 305.575 133.236 309.657V330.342C133.236 334.425 130.699 337.908 127.12 339.321C128.218 339.755 129.41 340.001 130.661 340.001H151.345C156.679 340.001 161.004 335.677 161.004 330.343V309.659C161.004 304.324 156.679 300 151.345 300V300Z" fill="#2A428C"/>
<path d="M151.345 380H130.661C129.41 380 128.218 380.246 127.12 380.679C130.7 382.092 133.236 385.575 133.236 389.658V410.343C133.236 414.425 130.699 417.908 127.12 419.321C128.218 419.755 129.41 420.001 130.661 420.001H151.345C156.679 420.001 161.004 415.677 161.004 410.344V389.659C161.004 384.323 156.679 380 151.345 380V380Z" fill="#2A428C"/>
<path d="M231.346 300H210.662C209.41 300 208.219 300.246 207.121 300.679C210.701 302.092 213.238 305.575 213.238 309.657V330.342C213.238 334.425 210.701 337.908 207.121 339.321C208.219 339.755 209.41 340.001 210.662 340.001H231.346C236.68 340.001 241.004 335.677 241.004 330.343V309.659C241.003 304.324 236.68 300 231.346 300V300Z" fill="#2A428C"/>
<path d="M321.003 340V309.657C321.003 304.323 316.679 300 311.345 300H290.661C289.41 300 288.218 300.246 287.12 300.679C290.7 302.092 293.237 305.575 293.237 309.657V330.342C293.237 334.425 290.7 337.908 287.12 339.321C288.218 339.755 289.41 340.001 290.661 340.001H321.003V340Z" fill="#2A428C"/>
<path d="M231.346 380H210.662C209.41 380 208.219 380.246 207.121 380.679C210.701 382.092 213.238 385.575 213.238 389.658V410.343C213.238 414.425 210.701 417.908 207.121 419.321C208.219 419.755 209.41 420.001 210.662 420.001H231.346C236.68 420.001 241.004 415.677 241.004 410.344V389.659C241.003 384.323 236.68 380 231.346 380V380Z" fill="#2A428C"/>
<path d="M493.243 168.423V348.045V460H521.029V348.045V180L493.243 168.423Z" fill="#D3DCFB"/>
<path d="M521.03 180V79.9992C521.03 57.9082 503.121 40.0007 481.031 40.0007H40.9896C18.8985 40.0007 0.991089 57.9082 0.991089 79.9992V180H521.03Z" fill="#FF4155"/>
<path d="M127.026 89.0543H100.991C95.9894 89.0543 91.937 85.0008 91.937 80.0004C91.937 75 95.9905 70.9465 100.991 70.9465H127.026C132.028 70.9465 136.08 75 136.08 80.0004C136.08 85.0008 132.027 89.0543 127.026 89.0543V89.0543Z" fill="#E80054"/>
<path d="M190.99 89.0543H164.954C159.952 89.0543 155.9 85.0008 155.9 80.0004C155.9 75 159.954 70.9465 164.954 70.9465H190.99C195.991 70.9465 200.044 75 200.044 80.0004C200.044 85.0008 195.991 89.0543 190.99 89.0543V89.0543Z" fill="#E80054"/>
<path d="M357.04 89.0543H331.003C326.001 89.0543 321.949 85.0008 321.949 80.0004C321.949 75 326.003 70.9465 331.003 70.9465H357.04C362.041 70.9465 366.094 75 366.094 80.0004C366.094 85.0008 362.041 89.0543 357.04 89.0543Z" fill="#E80054"/>
<path d="M421.004 89.0543H394.967C389.966 89.0543 385.914 85.0008 385.914 80.0004C385.914 75 389.967 70.9465 394.967 70.9465H421.004C426.006 70.9465 430.058 75 430.058 80.0004C430.058 85.0008 426.005 89.0543 421.004 89.0543Z" fill="#E80054"/>
<path d="M170.99 75C170.99 88.807 159.798 99.9996 145.991 99.9996C132.184 99.9996 120.991 88.807 120.991 75V24.9996C120.99 11.1926 132.182 0 145.99 0C159.797 0 170.989 11.1926 170.989 24.9996V75H170.99Z" fill="#EBF5FC"/>
<path d="M401.003 75C401.003 88.807 389.811 99.9996 376.004 99.9996C362.197 99.9996 351.003 88.807 351.003 75V24.9996C351.003 11.1926 362.196 0 376.003 0C389.81 0 401.002 11.1926 401.002 24.9996V75H401.003Z" fill="#EBF5FC"/>
<path d="M376.003 0C370.87 0 366.103 1.55156 362.132 4.20469C368.841 8.68828 373.263 16.3254 373.263 25.0008V75C373.263 83.6742 368.841 91.3125 362.132 95.7961C366.101 98.4481 370.87 100.001 376.003 100.001C389.81 100.001 401.002 88.8082 401.002 75.0012V24.9996C401.003 11.1926 389.811 0 376.003 0V0Z" fill="#D3DCFB"/>
<path d="M145.99 0C140.857 0 136.09 1.55156 132.12 4.20469C138.828 8.68828 143.25 16.3254 143.25 25.0008V75C143.25 83.6742 138.828 91.3125 132.12 95.7961C136.089 98.4481 140.857 100.001 145.99 100.001C159.797 100.001 170.989 88.8082 170.989 75.0012V24.9996C170.991 11.1926 159.798 0 145.99 0V0Z" fill="#D3DCFB"/>
<path d="M481.031 39.9996H453.254C475.345 39.9996 493.252 57.9071 493.252 79.9981V180H521.028V79.9992C521.029 57.9082 503.121 39.9996 481.031 39.9996V39.9996Z" fill="#E80054"/>
<path d="M0.98999 130.945H521.029V149.054H0.98999V130.945Z" fill="#E80054"/>
<path d="M411.01 600C493.853 600 561.01 532.843 561.01 450C561.01 367.157 493.853 300 411.01 300C328.168 300 261.01 367.157 261.01 450C261.01 532.843 328.168 600 411.01 600Z" fill="#4FABF7"/>
<path d="M411.01 560C471.762 560 521.011 510.752 521.011 450C521.011 389.248 471.762 340 411.01 340C350.259 340 301.01 389.248 301.01 450C301.01 510.752 350.259 560 411.01 560Z" fill="#EBF5FC"/>
<path d="M411.01 439.053C406.009 439.053 401.956 435 401.956 430V379.999C401.956 374.999 406.01 370.945 411.01 370.945C416.012 370.945 420.064 374.999 420.064 379.999V430C420.064 435 416.01 439.053 411.01 439.053Z" fill="#3C58A0"/>
<path d="M461.01 459.054H431.009C426.008 459.054 421.955 455 421.955 450C421.955 445 426.009 440.946 431.009 440.946H461.01C466.012 440.946 470.064 445 470.064 450C470.064 455 466.011 459.054 461.01 459.054Z" fill="#3C58A0"/>
<path d="M411.01 300C406.328 300 401.699 300.226 397.127 300.646C473.459 307.652 533.242 371.839 533.242 450C533.242 528.161 473.458 592.348 397.125 599.354C401.698 599.774 406.327 600 411.009 600C493.851 600 561.009 532.842 561.009 450C561.009 367.158 493.852 300 411.01 300Z" fill="#1886EA"/>
<path d="M411.01 340C406.311 340 401.681 340.296 397.136 340.868C451.338 347.689 493.263 393.948 493.263 450C493.263 506.052 451.338 552.311 397.136 559.132C401.681 559.704 406.311 560 411.01 560C471.761 560 521.01 510.751 521.01 450C521.01 389.249 471.761 340 411.01 340V340Z" fill="#D3DCFB"/>
<path d="M411.01 470C422.056 470 431.011 461.046 431.011 450C431.011 438.954 422.056 430 411.01 430C399.964 430 391.01 438.954 391.01 450C391.01 461.046 399.964 470 411.01 470Z" fill="#FFDD40"/>
</svg>
