<svg width="600" height="600" viewBox="0 0 600 600" fill="none" xmlns="http://www.w3.org/2000/svg">
<path d="M440.625 571.875H84.375C74.4294 571.875 64.8911 567.924 57.8585 560.891C50.8259 553.859 46.875 544.321 46.875 534.375V65.625C46.875 55.6794 50.8259 46.1411 57.8585 39.1085C64.8911 32.0759 74.4294 28.125 84.375 28.125H365.625L478.125 140.625V534.375C478.125 544.321 474.174 553.859 467.141 560.891C460.109 567.924 450.571 571.875 440.625 571.875Z" fill="#E9EEF2"/>
<path d="M478.125 140.625H403.125C393.179 140.625 383.641 136.674 376.609 129.642C369.576 122.609 365.625 113.071 365.625 103.125V28.125L478.125 140.625Z" fill="#C3C6C7"/>
<path d="M421.875 206.25H196.875C194.389 206.25 192.004 205.262 190.246 203.504C188.488 201.746 187.5 199.361 187.5 196.875C187.5 194.389 188.488 192.004 190.246 190.246C192.004 188.488 194.389 187.5 196.875 187.5H421.875C424.361 187.5 426.746 188.488 428.504 190.246C430.262 192.004 431.25 194.389 431.25 196.875C431.25 199.361 430.262 201.746 428.504 203.504C426.746 205.262 424.361 206.25 421.875 206.25Z" fill="#C3C6C7"/>
<path d="M290.625 262.5H103.125C100.639 262.5 98.254 261.512 96.4959 259.754C94.7377 257.996 93.75 255.611 93.75 253.125C93.75 250.639 94.7377 248.254 96.4959 246.496C98.254 244.738 100.639 243.75 103.125 243.75H290.625C293.111 243.75 295.496 244.738 297.254 246.496C299.012 248.254 300 250.639 300 253.125C300 255.611 299.012 257.996 297.254 259.754C295.496 261.512 293.111 262.5 290.625 262.5Z" fill="#C3C6C7"/>
<path d="M328.125 318.75H253.125C250.639 318.75 248.254 317.762 246.496 316.004C244.738 314.246 243.75 311.861 243.75 309.375C243.75 306.889 244.738 304.504 246.496 302.746C248.254 300.988 250.639 300 253.125 300H328.125C330.611 300 332.996 300.988 334.754 302.746C336.512 304.504 337.5 306.889 337.5 309.375C337.5 311.861 336.512 314.246 334.754 316.004C332.996 317.762 330.611 318.75 328.125 318.75Z" fill="#C3C6C7"/>
<path d="M271.875 375H103.125C100.639 375 98.254 374.012 96.4959 372.254C94.7377 370.496 93.75 368.111 93.75 365.625C93.75 363.139 94.7377 360.754 96.4959 358.996C98.254 357.238 100.639 356.25 103.125 356.25H271.875C274.361 356.25 276.746 357.238 278.504 358.996C280.262 360.754 281.25 363.139 281.25 365.625C281.25 368.111 280.262 370.496 278.504 372.254C276.746 374.012 274.361 375 271.875 375Z" fill="#C3C6C7"/>
<path d="M159.375 206.25H103.125C100.639 206.25 98.254 205.262 96.4959 203.504C94.7377 201.746 93.75 199.361 93.75 196.875C93.75 194.389 94.7377 192.004 96.4959 190.246C98.254 188.488 100.639 187.5 103.125 187.5H159.375C161.861 187.5 164.246 188.488 166.004 190.246C167.762 192.004 168.75 194.389 168.75 196.875C168.75 199.361 167.762 201.746 166.004 203.504C164.246 205.262 161.861 206.25 159.375 206.25Z" fill="#C3C6C7"/>
<path d="M421.875 262.5H328.125C325.639 262.5 323.254 261.512 321.496 259.754C319.738 257.996 318.75 255.611 318.75 253.125C318.75 250.639 319.738 248.254 321.496 246.496C323.254 244.738 325.639 243.75 328.125 243.75H421.875C424.361 243.75 426.746 244.738 428.504 246.496C430.262 248.254 431.25 250.639 431.25 253.125C431.25 255.611 430.262 257.996 428.504 259.754C426.746 261.512 424.361 262.5 421.875 262.5Z" fill="#C3C6C7"/>
<path d="M215.625 318.75H103.125C100.639 318.75 98.254 317.762 96.4959 316.004C94.7377 314.246 93.75 311.861 93.75 309.375C93.75 306.889 94.7377 304.504 96.4959 302.746C98.254 300.988 100.639 300 103.125 300H215.625C218.111 300 220.496 300.988 222.254 302.746C224.012 304.504 225 306.889 225 309.375C225 311.861 224.012 314.246 222.254 316.004C220.496 317.762 218.111 318.75 215.625 318.75Z" fill="#C3C6C7"/>
<path d="M253.125 487.5H215.625C213.139 487.5 210.754 486.512 208.996 484.754C207.238 482.996 206.25 480.611 206.25 478.125C206.25 475.639 207.238 473.254 208.996 471.496C210.754 469.738 213.139 468.75 215.625 468.75H253.125C255.611 468.75 257.996 469.738 259.754 471.496C261.512 473.254 262.5 475.639 262.5 478.125C262.5 480.611 261.512 482.996 259.754 484.754C257.996 486.512 255.611 487.5 253.125 487.5Z" fill="#C3C6C7"/>
<path d="M178.125 487.5H103.125C100.639 487.5 98.254 486.512 96.4959 484.754C94.7377 482.996 93.75 480.611 93.75 478.125C93.75 475.639 94.7377 473.254 96.4959 471.496C98.254 469.738 100.639 468.75 103.125 468.75H178.125C180.611 468.75 182.996 469.738 184.754 471.496C186.512 473.254 187.5 475.639 187.5 478.125C187.5 480.611 186.512 482.996 184.754 484.754C182.996 486.512 180.611 487.5 178.125 487.5Z" fill="#C3C6C7"/>
<path d="M159.375 431.25H103.125C100.639 431.25 98.254 430.262 96.4959 428.504C94.7377 426.746 93.75 424.361 93.75 421.875C93.75 419.389 94.7377 417.004 96.4959 415.246C98.254 413.488 100.639 412.5 103.125 412.5H159.375C161.861 412.5 164.246 413.488 166.004 415.246C167.762 417.004 168.75 419.389 168.75 421.875C168.75 424.361 167.762 426.746 166.004 428.504C164.246 430.262 161.861 431.25 159.375 431.25Z" fill="#C3C6C7"/>
<path d="M215.625 150H103.125C100.639 150 98.254 149.012 96.4959 147.254C94.7377 145.496 93.75 143.111 93.75 140.625C93.75 138.139 94.7377 135.754 96.4959 133.996C98.254 132.238 100.639 131.25 103.125 131.25H215.625C218.111 131.25 220.496 132.238 222.254 133.996C224.012 135.754 225 138.139 225 140.625C225 143.111 224.012 145.496 222.254 147.254C220.496 149.012 218.111 150 215.625 150Z" fill="#C3C6C7"/>
<path d="M253.125 431.25H196.875C194.389 431.25 192.004 430.262 190.246 428.504C188.488 426.746 187.5 424.361 187.5 421.875C187.5 419.389 188.488 417.004 190.246 415.246C192.004 413.488 194.389 412.5 196.875 412.5H253.125C255.611 412.5 257.996 413.488 259.754 415.246C261.512 417.004 262.5 419.389 262.5 421.875C262.5 424.361 261.512 426.746 259.754 428.504C257.996 430.262 255.611 431.25 253.125 431.25Z" fill="#C3C6C7"/>
<path d="M476.442 329.181C535.73 337.497 581.34 388.37 581.34 449.951C581.34 517.271 526.741 571.875 459.421 571.875C413.141 571.875 372.786 546.056 352.225 507.997C342.855 490.689 337.5 470.896 337.5 449.857C337.5 382.538 392.102 327.936 459.421 327.936C465.16 328.032 470.8 328.416 476.442 329.181V329.181Z" fill="#FFD30F"/>
<path d="M373.468 449.905C373.468 445.158 377.316 441.31 382.063 441.31H536.777C541.524 441.31 545.372 445.158 545.372 449.905C545.372 454.652 541.524 458.501 536.777 458.501H382.063C377.316 458.501 373.468 454.652 373.468 449.905Z" fill="white"/>
<path d="M459.42 363.953C464.167 363.953 468.015 367.801 468.015 372.548L468.015 527.263C468.015 532.01 464.167 535.858 459.42 535.858C454.673 535.858 450.825 532.01 450.825 527.263L450.825 372.548C450.825 367.801 454.673 363.953 459.42 363.953Z" fill="white"/>
</svg>
