<svg width="516" height="544" viewBox="0 0 516 544" fill="none" xmlns="http://www.w3.org/2000/svg">
<path d="M394.625 543.875H38.375C28.4294 543.875 18.8911 539.924 11.8585 532.891C4.82588 525.859 0.875 516.321 0.875 506.375V37.625C0.875 27.6794 4.82588 18.1411 11.8585 11.1085C18.8911 4.07588 28.4294 0.125 38.375 0.125H319.625L432.125 112.625V506.375C432.125 516.321 428.174 525.859 421.141 532.891C414.109 539.924 404.571 543.875 394.625 543.875Z" fill="#E9EEF2"/>
<path d="M432.125 112.625H357.125C347.179 112.625 337.641 108.674 330.609 101.642C323.576 94.6089 319.625 85.0706 319.625 75.125V0.125L432.125 112.625Z" fill="#C3C6C7"/>
<path d="M375.875 178.25H150.875C148.389 178.25 146.004 177.262 144.246 175.504C142.488 173.746 141.5 171.361 141.5 168.875C141.5 166.389 142.488 164.004 144.246 162.246C146.004 160.488 148.389 159.5 150.875 159.5H375.875C378.361 159.5 380.746 160.488 382.504 162.246C384.262 164.004 385.25 166.389 385.25 168.875C385.25 171.361 384.262 173.746 382.504 175.504C380.746 177.262 378.361 178.25 375.875 178.25Z" fill="#C3C6C7"/>
<path d="M244.625 234.5H57.125C54.6386 234.5 52.254 233.512 50.4959 231.754C48.7377 229.996 47.75 227.611 47.75 225.125C47.75 222.639 48.7377 220.254 50.4959 218.496C52.254 216.738 54.6386 215.75 57.125 215.75H244.625C247.111 215.75 249.496 216.738 251.254 218.496C253.012 220.254 254 222.639 254 225.125C254 227.611 253.012 229.996 251.254 231.754C249.496 233.512 247.111 234.5 244.625 234.5Z" fill="#C3C6C7"/>
<path d="M282.125 290.75H207.125C204.639 290.75 202.254 289.762 200.496 288.004C198.738 286.246 197.75 283.861 197.75 281.375C197.75 278.889 198.738 276.504 200.496 274.746C202.254 272.988 204.639 272 207.125 272H282.125C284.611 272 286.996 272.988 288.754 274.746C290.512 276.504 291.5 278.889 291.5 281.375C291.5 283.861 290.512 286.246 288.754 288.004C286.996 289.762 284.611 290.75 282.125 290.75Z" fill="#C3C6C7"/>
<path d="M225.875 347H57.125C54.6386 347 52.254 346.012 50.4959 344.254C48.7377 342.496 47.75 340.111 47.75 337.625C47.75 335.139 48.7377 332.754 50.4959 330.996C52.254 329.238 54.6386 328.25 57.125 328.25H225.875C228.361 328.25 230.746 329.238 232.504 330.996C234.262 332.754 235.25 335.139 235.25 337.625C235.25 340.111 234.262 342.496 232.504 344.254C230.746 346.012 228.361 347 225.875 347Z" fill="#C3C6C7"/>
<path d="M113.375 178.25H57.125C54.6386 178.25 52.254 177.262 50.4959 175.504C48.7377 173.746 47.75 171.361 47.75 168.875C47.75 166.389 48.7377 164.004 50.4959 162.246C52.254 160.488 54.6386 159.5 57.125 159.5H113.375C115.861 159.5 118.246 160.488 120.004 162.246C121.762 164.004 122.75 166.389 122.75 168.875C122.75 171.361 121.762 173.746 120.004 175.504C118.246 177.262 115.861 178.25 113.375 178.25Z" fill="#C3C6C7"/>
<path d="M375.875 234.5H282.125C279.639 234.5 277.254 233.512 275.496 231.754C273.738 229.996 272.75 227.611 272.75 225.125C272.75 222.639 273.738 220.254 275.496 218.496C277.254 216.738 279.639 215.75 282.125 215.75H375.875C378.361 215.75 380.746 216.738 382.504 218.496C384.262 220.254 385.25 222.639 385.25 225.125C385.25 227.611 384.262 229.996 382.504 231.754C380.746 233.512 378.361 234.5 375.875 234.5Z" fill="#C3C6C7"/>
<path d="M169.625 290.75H57.125C54.6386 290.75 52.254 289.762 50.4959 288.004C48.7377 286.246 47.75 283.861 47.75 281.375C47.75 278.889 48.7377 276.504 50.4959 274.746C52.254 272.988 54.6386 272 57.125 272H169.625C172.111 272 174.496 272.988 176.254 274.746C178.012 276.504 179 278.889 179 281.375C179 283.861 178.012 286.246 176.254 288.004C174.496 289.762 172.111 290.75 169.625 290.75Z" fill="#C3C6C7"/>
<path d="M207.125 459.5H169.625C167.139 459.5 164.754 458.512 162.996 456.754C161.238 454.996 160.25 452.611 160.25 450.125C160.25 447.639 161.238 445.254 162.996 443.496C164.754 441.738 167.139 440.75 169.625 440.75H207.125C209.611 440.75 211.996 441.738 213.754 443.496C215.512 445.254 216.5 447.639 216.5 450.125C216.5 452.611 215.512 454.996 213.754 456.754C211.996 458.512 209.611 459.5 207.125 459.5Z" fill="#C3C6C7"/>
<path d="M132.125 459.5H57.125C54.6386 459.5 52.254 458.512 50.4959 456.754C48.7377 454.996 47.75 452.611 47.75 450.125C47.75 447.639 48.7377 445.254 50.4959 443.496C52.254 441.738 54.6386 440.75 57.125 440.75H132.125C134.611 440.75 136.996 441.738 138.754 443.496C140.512 445.254 141.5 447.639 141.5 450.125C141.5 452.611 140.512 454.996 138.754 456.754C136.996 458.512 134.611 459.5 132.125 459.5Z" fill="#C3C6C7"/>
<path d="M113.375 403.25H57.125C54.6386 403.25 52.254 402.262 50.4959 400.504C48.7377 398.746 47.75 396.361 47.75 393.875C47.75 391.389 48.7377 389.004 50.4959 387.246C52.254 385.488 54.6386 384.5 57.125 384.5H113.375C115.861 384.5 118.246 385.488 120.004 387.246C121.762 389.004 122.75 391.389 122.75 393.875C122.75 396.361 121.762 398.746 120.004 400.504C118.246 402.262 115.861 403.25 113.375 403.25Z" fill="#C3C6C7"/>
<path d="M169.625 122H57.125C54.6386 122 52.254 121.012 50.4959 119.254C48.7377 117.496 47.75 115.111 47.75 112.625C47.75 110.139 48.7377 107.754 50.4959 105.996C52.254 104.238 54.6386 103.25 57.125 103.25H169.625C172.111 103.25 174.496 104.238 176.254 105.996C178.012 107.754 179 110.139 179 112.625C179 115.111 178.012 117.496 176.254 119.254C174.496 121.012 172.111 122 169.625 122Z" fill="#C3C6C7"/>
<path d="M207.125 403.25H150.875C148.389 403.25 146.004 402.262 144.246 400.504C142.488 398.746 141.5 396.361 141.5 393.875C141.5 391.389 142.488 389.004 144.246 387.246C146.004 385.488 148.389 384.5 150.875 384.5H207.125C209.611 384.5 211.996 385.488 213.754 387.246C215.512 389.004 216.5 391.389 216.5 393.875C216.5 396.361 215.512 398.746 213.754 400.504C211.996 402.262 209.611 403.25 207.125 403.25Z" fill="#C3C6C7"/>
<circle cx="394.25" cy="421.875" r="88.1628" fill="white"/>
<path d="M491.145 379.612L490.833 421.875C490.833 487.28 447.591 540.301 394.25 540.301C459.387 540.301 512.19 487.28 512.19 421.875L491.145 379.612Z" fill="#48459D"/>
<path d="M497.952 421.875C497.952 406.984 495.539 392.739 491.145 379.612L490.833 378.984L469.476 421.875C469.476 463.592 435.796 497.41 394.25 497.41V540.301C451.523 540.301 497.952 487.28 497.952 421.875Z" fill="#6461AC"/>
<path d="M394.25 497.41C352.704 497.41 319.024 463.592 319.024 421.875H276.31C276.31 487.28 329.113 540.301 394.25 540.301L415.607 518.855L394.25 497.41Z" fill="#807DBB"/>
<path d="M319.024 421.875C319.024 380.158 352.704 346.34 394.25 346.34V303.449C329.113 303.449 276.31 356.47 276.31 421.875L297.667 443.32L319.024 421.875Z" fill="#B6B5D8"/>
<path d="M394.25 303.449L512.19 421.875C512.19 356.47 459.387 303.449 394.25 303.449Z" fill="#363476"/>
<path d="M394.25 303.449L372.893 324.895L394.25 346.34C435.796 346.34 469.476 380.158 469.476 421.875L490.833 400.43L497.112 406.735C490.602 348.48 447.031 303.449 394.25 303.449Z" fill="#48459D"/>
<path d="M480.164 335.608C457.215 312.565 426.704 299.875 394.25 299.875C361.796 299.875 331.285 312.565 308.336 335.608C285.388 358.651 272.75 389.288 272.75 421.875C272.75 454.462 285.388 485.099 308.336 508.142C331.285 531.185 361.796 543.875 394.25 543.875C426.704 543.875 457.215 531.185 480.164 508.142C503.112 485.099 515.75 454.462 515.75 421.875C515.75 389.288 503.112 358.651 480.164 335.608V335.608ZM508.283 412.897L493.35 397.902C491.96 396.507 489.706 396.507 488.316 397.902L466.959 419.348C466.291 420.018 465.916 420.927 465.916 421.875C465.916 461.555 433.767 493.836 394.25 493.836C354.733 493.836 322.584 461.555 322.584 421.875C322.584 382.195 354.733 349.914 394.25 349.914C427.359 349.914 455.98 372.435 463.852 404.682C464.32 406.598 466.246 407.772 468.157 407.302C470.066 406.832 471.234 404.897 470.767 402.98C466.643 386.088 456.864 370.793 443.23 359.911C429.566 349.005 413.174 343.099 395.74 342.781L377.926 324.895L395.706 307.042C455.106 307.791 503.744 354.227 508.283 412.897V412.897ZM385.309 307.373L370.376 322.367C368.986 323.763 368.986 326.026 370.376 327.422L386.079 343.189C346.948 347.257 316.232 380.202 315.484 420.376L297.667 438.266L279.888 420.413C280.634 360.768 326.879 311.931 385.309 307.373V307.373ZM280.217 430.853L295.15 445.848C295.845 446.545 296.756 446.895 297.667 446.895C298.578 446.895 299.489 446.546 300.184 445.848L315.887 430.08C319.938 469.372 352.748 500.214 392.756 500.965L410.573 518.855L392.794 536.708C333.394 535.959 284.756 489.523 280.217 430.853ZM403.192 536.377L418.125 521.383C419.515 519.987 419.515 517.724 418.125 516.328L402.421 500.56C441.553 496.492 472.275 463.544 473.021 423.369L490.833 405.485L508.612 423.337C507.866 482.982 461.621 531.819 403.192 536.377Z" fill="black"/>
<path d="M431.611 453.217L401.115 430.345V383.756C401.115 379.072 397.329 375.285 392.644 375.285C387.96 375.285 384.173 379.072 384.173 383.756V434.581C384.173 437.25 385.427 439.766 387.562 441.358L421.445 466.771C422.97 467.914 424.749 468.465 426.519 468.465C429.103 468.465 431.644 467.304 433.304 465.068C436.117 461.332 435.355 456.021 431.611 453.217Z" fill="black"/>
</svg>
